<svg t="1675999108837" class="icon" viewBox="0 0 1024 1024" version="1.1" xmlns="http://www.w3.org/2000/svg" p-id="3031" width="200" height="200"><path d="M327.253333 85.333333h369.92C841.813333 85.333333 938.666667 186.88 938.666667 337.92v348.586667c0 150.613333-96.853333 252.16-241.493334 252.16H327.253333C182.613333 938.666667 85.333333 837.12 85.333333 686.506667V337.92C85.333333 186.88 182.613333 85.333333 327.253333 85.333333z m313.173334 554.666667a37.034667 37.034667 0 0 0 0-52.48l-75.946667-75.946667 75.946667-75.946666a37.546667 37.546667 0 0 0 0-52.906667 37.546667 37.546667 0 0 0-52.906667 0L512 458.666667l-75.946667-75.946667a37.546667 37.546667 0 0 0-52.906666 0 37.546667 37.546667 0 0 0 0 52.906667l75.946666 75.946666-75.946666 75.52a37.546667 37.546667 0 0 0 26.453333 64c9.813333 0 19.2-3.84 26.453333-11.093333L512 564.48 587.946667 640c7.253333 7.68 16.64 11.093333 26.026666 11.093333 9.813333 0 19.2-3.84 26.453334-11.093333z" fill="#200E32" p-id="3032"></path></svg>
