<svg t="1675999307548" class="icon" viewBox="0 0 1024 1024" version="1.1" xmlns="http://www.w3.org/2000/svg" p-id="7618" width="200" height="200"><path d="M392.704 893.44H186.368c-31.232 0-55.808-24.576-55.808-55.808v-204.8c0-7.168 6.144-13.312 13.312-13.312h83.456c7.168 0 13.312 6.144 13.312 13.312v138.24c0 7.168 6.144 13.312 13.312 13.312h137.728c7.168 0 13.312 6.144 13.312 13.312v81.408c1.024 8.192-5.12 14.336-12.288 14.336z m444.928 0h-200.704c-7.168 0-13.312-6.144-13.312-13.312V798.72c0-7.168 6.144-13.312 13.312-13.312h133.632c7.168 0 13.312-6.144 13.312-13.312V634.88c0-7.168 6.144-13.312 13.312-13.312h82.432c7.168 0 13.312 6.144 13.312 13.312v202.752c0.512 31.232-24.064 55.808-55.296 55.808z m42.496-490.496h-82.432c-7.168 0-13.312-6.144-13.312-13.312V252.416c0-7.168-6.144-13.312-13.312-13.312h-134.656c-7.168 0-13.312-6.144-13.312-13.312v-81.92c0-7.168 6.144-13.312 13.312-13.312h201.728c31.232 0 55.808 24.576 55.808 55.808v203.264c-0.512 7.168-6.656 13.312-13.824 13.312zM227.328 404.48H143.872c-7.168 0-13.312-6.144-13.312-13.312v-204.8c0-31.232 24.576-55.808 55.808-55.808h206.336c7.168 0 13.312 6.144 13.312 13.312V225.28c0 7.168-6.144 13.312-13.312 13.312h-138.24c-7.168 0-13.312 6.144-13.312 13.312v137.728c-0.512 8.704-6.144 14.848-13.824 14.848z" fill="#2C2C2C" p-id="7619"></path></svg>
