<?xml version="1.0" standalone="no"?><!DOCTYPE svg PUBLIC "-//W3C//DTD SVG 1.1//EN" "http://www.w3.org/Graphics/SVG/1.1/DTD/svg11.dtd"><svg t="1676009636719" class="icon" viewBox="0 0 1024 1024" version="1.1" xmlns="http://www.w3.org/2000/svg" p-id="15528" xmlns:xlink="http://www.w3.org/1999/xlink" width="200" height="200"><path d="M864.4864 124.18048h-30.21824c-33.37728 0-60.43136 27.0592-60.43136 60.43648v105.7536c0 33.37728 27.05408 60.43648 60.43136 60.43648h30.21824c33.37216 0 60.43136-27.0592 60.43136-60.43648V184.61696c-0.00512-33.37728-27.06432-60.43648-60.43136-60.43648z" fill="#3886BD" p-id="15529"></path><path d="M864.4864 396.12928h-30.21824c-33.37728 0-60.43136 27.0592-60.43136 60.43648v105.75872c0 33.37216 27.05408 60.43136 60.43136 60.43136h30.21824c33.37216 0 60.43136-27.0592 60.43136-60.43136V456.56064c-0.00512-33.37216-27.06432-60.43136-60.43136-60.43136z" fill="#EA5455" p-id="15530"></path><path d="M864.4864 668.07296h-30.21824c-33.37728 0-60.43136 27.0592-60.43136 60.43648v105.7536c0 33.37728 27.05408 60.43648 60.43136 60.43648h30.21824c33.37216 0 60.43136-27.0592 60.43136-60.43648v-105.7536c-0.00512-33.37216-27.06432-60.43648-60.43136-60.43648z" fill="#71C171" p-id="15531"></path><path d="M849.37728 894.69952h30.21312v-226.62656h-30.21312v226.62656z m0-770.51904v226.62656h30.21312V124.18048h-30.21312z m0 498.57024h30.21312V396.12928h-30.21312v226.62144z" fill="" p-id="15532"></path><path d="M773.8368 48.64H214.83008v921.6H773.8368c41.72288 0 75.54048-33.81248 75.54048-75.54048V124.18048c0-41.72288-33.8176-75.54048-75.54048-75.54048z" fill="#D3B083" p-id="15533"></path><path d="M199.72096 48.64h-45.32736c-33.37728 0-60.43136 27.0592-60.43136 60.43136v800.73216c0 33.37728 27.0592 60.43648 60.43136 60.43648h60.43648V48.64h-15.10912z" fill="#8F6346" p-id="15534"></path></svg>
