<?xml version="1.0" standalone="no"?><!DOCTYPE svg PUBLIC "-//W3C//DTD SVG 1.1//EN" "http://www.w3.org/Graphics/SVG/1.1/DTD/svg11.dtd"><svg t="1676007874795" class="icon" viewBox="0 0 1024 1024" version="1.1" xmlns="http://www.w3.org/2000/svg" p-id="1147" xmlns:xlink="http://www.w3.org/1999/xlink" width="200" height="200"><path d="M513.8944 504.9344m-433.3568 0a433.3568 433.3568 0 1 0 866.7136 0 433.3568 433.3568 0 1 0-866.7136 0Z" fill="#5F73FA" p-id="1148"></path><path d="M513.8944 504.9344m-374.6816 0a374.6816 374.6816 0 1 0 749.3632 0 374.6816 374.6816 0 1 0-749.3632 0Z" fill="#5A6EFF" p-id="1149"></path><path d="M482.5088 467.9168m-284.3136 0a284.3136 284.3136 0 1 0 568.6272 0 284.3136 284.3136 0 1 0-568.6272 0Z" fill="#697CFF" p-id="1150"></path><path d="M717.312 485.5296c-7.8848-99.9424-85.9648-179.6096-185.7024-189.44-24.0128-2.3552-47.7184-0.6656-70.9632 5.12L320.9728 219.648l-5.2736-1.8432a77.63968 77.63968 0 0 0-81.92 19.6608 77.60384 77.60384 0 0 0-15.4624 82.7904l2.048 4.9664 87.4496 135.7824a207.7696 207.7696 0 0 0-3.4304 58.0608c7.9872 99.9936 89.4464 181.4528 189.3888 189.5424 5.5808 0.4608 11.264 0.6656 16.8448 0.6656 55.3984 0 107.4176-21.504 146.5344-60.5184 43.008-42.9568 64.9216-102.4512 60.16-163.2256zM415.488 411.0336c21.3504 10.7008 46.08 12.8512 68.7616 5.7856 11.4688-3.584 23.5008-4.7616 35.7888-3.584 42.1888 4.1472 76.4928 39.168 79.8208 81.5104 2.0992 26.368-7.3728 52.1216-25.9072 70.656-18.5344 18.5344-44.288 27.9552-70.7072 25.8048-43.008-3.4816-78.0288-38.5024-81.5104-81.5616-0.8192-10.2912 0.0512-20.48 2.6112-30.1568 6.0416-22.9888 2.816-47.616-8.8576-68.4544z" fill="#445EE0" p-id="1151"></path><path d="M510.6688 688.7936c-5.0688 0-10.1376-0.2048-15.2064-0.6144-90.0608-7.2704-163.4304-80.6912-170.6496-170.752-1.6384-20.4288 0-40.704 4.864-60.3136L238.592 315.6992l-1.3312-3.2256c-8.5504-20.736-4.096-44.6464 11.3664-60.8768 15.4624-16.2816 39.0656-21.9648 60.2112-14.4896l3.4816 1.2288 145.408 84.9408c23.2448-6.912 47.4112-9.1648 71.8848-6.7584 89.8048 8.8576 160.2048 80.64 167.2704 170.6496 4.352 54.8352-15.4112 108.4416-54.1696 147.1488a186.78784 186.78784 0 0 1-132.0448 54.4768zM352.512 350.7712l42.8032 66.4576c10.9056 16.9472 14.2848 37.7856 9.2672 57.088-3.1232 11.9296-4.1984 24.4224-3.1744 37.0176 4.2496 52.9408 47.3088 96.0512 100.2496 100.3008 32.3584 2.6112 64-8.96 86.8352-31.744 22.8352-22.784 34.4064-54.3744 31.8976-86.7328-4.096-52.0704-46.336-95.1296-98.2528-100.2496-15.0528-1.4848-29.7984 0-43.9296 4.4032-19.0464 5.9392-40.0384 3.4816-57.4976-6.7584l-68.1984-39.7824z" fill="#EFEDFB" p-id="1152"></path><path d="M510.6176 670.8736c-4.5568 0-9.1648-0.2048-13.7216-0.5632-81.408-6.5536-147.712-72.9088-154.2144-154.3168-1.536-19.2 0.1024-38.1952 4.9152-56.576 0.8704-3.4304 0.256-7.2192-1.792-10.3424L254.5664 307.3536l-0.7168-1.7408c-5.9392-14.4384-2.9696-30.4128 7.7824-41.728s26.5728-15.104 41.2672-9.9328l1.8432 0.6656 145.6128 85.0432c3.2256 1.8944 7.0144 2.4064 10.2912 1.3824 21.6576-6.7584 44.288-9.0112 67.1744-6.7584 79.872 7.8848 144.8448 74.1888 151.1936 154.2144 3.8912 49.5616-13.9264 98.048-48.9472 133.0176a168.704 168.704 0 0 1-119.4496 49.3568zM296.96 297.5744l83.3024 129.3824c8.192 12.7488 10.752 28.3648 6.9632 42.8544-3.6352 13.9264-4.864 28.3648-3.7376 42.9568 4.9152 61.5936 55.0912 111.7696 116.6848 116.736 37.632 3.072 74.3936-10.4448 100.9152-36.9152 26.5216-26.4704 40.0384-63.232 37.0688-100.8128-4.7616-60.5696-53.9136-110.7456-114.3296-116.6848-17.4592-1.7408-34.6112 0-50.9952 5.12-14.2336 4.4544-29.952 2.56-43.1616-5.12L296.96 297.5744z" fill="#FFFFFF" p-id="1153"></path></svg>