<?xml version="1.0" standalone="no"?><!DOCTYPE svg PUBLIC "-//W3C//DTD SVG 1.1//EN" "http://www.w3.org/Graphics/SVG/1.1/DTD/svg11.dtd"><svg t="1676022551878" class="icon" viewBox="0 0 1024 1024" version="1.1" xmlns="http://www.w3.org/2000/svg" p-id="19809" xmlns:xlink="http://www.w3.org/1999/xlink" width="200" height="200"><path d="M521.9 921.3c-56.7 0-111.8-11.1-163.6-33-50-21.2-95-51.5-133.6-90-38.6-38.6-68.9-83.5-90-133.6-21.9-51.8-33-106.9-33-163.6 0-56.7 11.1-111.8 33-163.6 21.2-50 51.5-95 90-133.6 38.6-38.6 83.5-68.9 133.6-90 51.8-21.9 106.9-33 163.6-33s111.8 11.1 163.6 33c50 21.2 95 51.5 133.6 90 38.6 38.6 68.9 83.5 90 133.6 21.9 51.8 33 106.9 33 163.6 0 56.7-11.1 111.8-33 163.6-21.2 50-51.5 95-90 133.6-38.6 38.6-83.5 68.9-133.6 90-51.8 21.9-106.8 33-163.6 33z m0-800.7c-209.8 0-380.5 170.7-380.5 380.5s170.7 380.5 380.5 380.5 380.5-170.7 380.5-380.5-170.7-380.5-380.5-380.5z" fill="#353535" p-id="19810"></path><path d="M521.9 501.1m-282.1 0a282.1 282.1 0 1 0 564.2 0 282.1 282.1 0 1 0-564.2 0Z" fill="#FEE632" p-id="19811"></path><path d="M297.2 501.1m-50 0a50 50 0 1 0 100 0 50 50 0 1 0-100 0Z" fill="#353535" p-id="19812"></path><path d="M521.3 501.1m-50 0a50 50 0 1 0 100 0 50 50 0 1 0-100 0Z" fill="#353535" p-id="19813"></path><path d="M745.4 501.1m-50 0a50 50 0 1 0 100 0 50 50 0 1 0-100 0Z" fill="#353535" p-id="19814"></path></svg>